HIERARCHY
ROOT Hips
{
	OFFSET 0.00000 0.00000 0.00000
	CHANNELS 6 Xposition Yposition Zposition Zrotation Yrotation Xrotation 
	JOINT LHipJoint
	{
		OFFSET 0 0 0
		CHANNELS 3 Zrotation Yrotation Xrotation
		JOINT LeftHip
		{
			OFFSET 1.60223 -1.58443 0.78595
			CHANNELS 3 Zrotation Yrotation Xrotation
			JOINT LeftKnee
			{
				OFFSET 2.21690 -6.09089 0.00000
				CHANNELS 3 Zrotation Yrotation Xrotation
				JOINT LeftAnkle
				{
					OFFSET 2.34805 -6.45122 0.00000
					CHANNELS 3 Zrotation Yrotation Xrotation
					JOINT LeftToe
					{
						OFFSET 0.35452 -0.97402 1.38549
						CHANNELS 3 Zrotation Yrotation Xrotation
						End Site
						{
							OFFSET 0.00000 -0.00000 0.82816
						}
					}
				}
			}
		}
	}
	JOINT RHipJoint
	{
		OFFSET 0 0 0
		CHANNELS 3 Zrotation Yrotation Xrotation
		JOINT RightHip
		{
			OFFSET -1.56524 -1.58443 0.78595
			CHANNELS 3 Zrotation Yrotation Xrotation
			JOINT RightKnee
			{
				OFFSET -2.15558 -5.92241 0.00000
				CHANNELS 3 Zrotation Yrotation Xrotation
				JOINT RightAnkle
				{
					OFFSET -2.35077 -6.45870 0.00000
					CHANNELS 3 Zrotation Yrotation Xrotation
					JOINT RightToe
					{
						OFFSET -0.26910 -0.73935 1.33295
						CHANNELS 3 Zrotation Yrotation Xrotation
						End Site
						{
							OFFSET -0.00000 -0.00000 0.75962
						}
					}
				}
			}
		}
	}
	JOINT lowerback
	{
		OFFSET 0 0 0
		CHANNELS 3 Zrotation Yrotation Xrotation
		JOINT Chest
		{
			OFFSET -0.05489 1.97104 -0.02993
			CHANNELS 3 Zrotation Yrotation Xrotation
			JOINT Chest2
			{
				OFFSET -0.00702 1.94230 0.13626
				CHANNELS 3 Zrotation Yrotation Xrotation
				JOINT lowerneck
				{
					OFFSET 0 0 0
					CHANNELS 3 Zrotation Yrotation Xrotation
					JOINT Neck
					{
						OFFSET -0.07858 1.62869 -0.02510
						CHANNELS 3 Zrotation Yrotation Xrotation
						JOINT Head
						{
							OFFSET 0.13978 1.59213 -0.29859
							CHANNELS 3 Zrotation Yrotation Xrotation
							End Site
							{
								OFFSET 0.05353 1.64420 -0.10000
							}
						}
					}
				}
				JOINT LeftCollar
				{
					OFFSET 0 0 0
					CHANNELS 3 Zrotation Yrotation Xrotation
					JOINT LeftShoulder
					{
						OFFSET 3.48263 1.15278 0.52941
CHANNELS 3 Zrotation Xrotation Yrotation
						JOINT LeftElbow
						{
OFFSET 0 -4.592070 -0.000000
CHANNELS 3 Zrotation Xrotation Yrotation
							JOINT LeftWrist
							{
OFFSET 0 -2.981090 -0.000000
CHANNELS 3 Zrotation Xrotation Yrotation
								JOINT lhand
								{
									OFFSET 0 0 0
CHANNELS 3 Zrotation Xrotation Yrotation
									JOINT LFingers
									{
OFFSET 0 -0.480200 -0.000000
CHANNELS 3 Zrotation Xrotation Yrotation
										End Site
										{
OFFSET 0 -0.387150 -0.000000
										}
									}
								}
								JOINT LThumb
								{
OFFSET 0 0.000000 0.000000
CHANNELS 3 Zrotation Xrotation Yrotation
									End Site
									{
OFFSET 0 -0.393060 0.393060
									}
								}
							}
						}
					}
				}
				JOINT RightCollar
				{
					OFFSET 0 0 0
					CHANNELS 3 Zrotation Yrotation Xrotation
					JOINT RightShoulder
					{
						OFFSET -3.52496 1.12722 0.24548
CHANNELS 3 Zrotation Xrotation Yrotation
						JOINT RightElbow
						{
OFFSET 0 -4.765080 -0.000000
CHANNELS 3 Zrotation Xrotation Yrotation
							JOINT RightWrist
							{
OFFSET 0 -2.789020 -0.000000
CHANNELS 3 Zrotation Xrotation Yrotation
								JOINT rhand
								{
									OFFSET 0 0 0
CHANNELS 3 Zrotation Xrotation Yrotation
									JOINT RFingers
									{
OFFSET 0 -0.721300 -0.000000
CHANNELS 3 Zrotation Xrotation Yrotation
										End Site
										{
OFFSET 0 -0.581530 -0.000000
										}
									}
								}
								JOINT RThumb
								{
OFFSET 0 0.000000 0.000000
CHANNELS 3 Zrotation Xrotation Yrotation
									End Site
									{
OFFSET 0 -0.590410 0.590410
									}
								}
							}
						}
					}
				}
			}
		}
	}
}
MOTION
Frames: 8
Frame Time: 0.008333333333333333
24.463100 15.994100 1.861800 35.774000 -85.593200 -33.003400 0.000000 0.000000 0.000000 -22.450200 -3.231800 -11.782500 2.551000 9.930100 28.750700 1.951500 -6.208000 -25.173800 0.315800 3.612400 9.988800 0.000000 0.000000 0.000000 13.847700 2.945000 -9.933800 -1.507000 -7.753200 21.967000 -1.401900 -3.616700 -23.924900 -0.794600 5.689900 -15.887200 -1.692800 4.735200 3.486500 -1.992300 6.092000 -3.612400 -1.630500 3.025000 -5.657000 0.478800 13.632200 -0.494600 1.616200 18.144300 2.243100 0.528000 9.085900 0.654100 -0.000000 -0.000000 0.000000 -4.388000 8.617300 -18.564600 16.723500 -26.491900 3.963200 28.181700 39.181400 -37.262200 0.000000 0.000000 0.000000 -7.125000 0.000000 0.000000 -9.247700 70.580300 5.662700 -0.000000 -0.000000 0.000000 2.887700 15.765100 24.810500 -24.823300 -36.022900 -8.185800 8.379600 -3.341100 -33.633000 0.000000 0.000000 0.000000 7.125000 0.000000 -0.000000 22.177600 -1.837500 24.790000
24.444660 15.998500 1.807279 24.304099 -84.421569 -21.516084 0.000000 0.000000 0.000000 -21.900131 -4.189141 -11.712524 2.577550 9.977558 28.903986 1.906963 -6.496945 -24.849749 0.308262 3.569526 9.868603 0.000000 0.000000 0.000000 14.407256 1.799950 -9.797542 -1.464067 -7.646939 21.646789 -1.323310 -4.059033 -23.531590 -1.322240 7.277721 -20.543039 -2.532409 5.385476 2.964174 -1.261903 6.976367 -3.401444 -0.435364 3.516180 -5.325968 0.159886 15.148278 -1.830378 2.704996 20.097310 5.286113 1.170766 10.084205 1.685398 0.000000 0.000000 0.000000 -5.502084 7.500287 -24.670570 17.387274 -27.364832 4.264173 26.107969 32.069821 -27.707248 0.000000 0.000000 0.000000 -7.125000 0.000000 0.000000 -5.008746 60.230380 1.868062 0.000000 0.000000 0.000000 4.144852 14.320861 14.714641 -21.051662 -31.884861 -6.078915 5.187356 -1.836583 -34.492616 0.000000 0.000000 0.000000 7.125000 0.000000 0.000000 20.517911 -2.756098 22.977817
24.419905 15.999543 1.759241 14.120486 -82.653206 -11.345652 0.000000 0.000000 0.000000 -21.101710 -5.159907 -11.817308 2.654305 10.113216 29.344123 1.857708 -7.372022 -24.463692 0.268031 3.330146 9.199331 0.000000 0.000000 0.000000 15.232817 0.864898 -9.214481 -1.373265 -7.416058 20.953859 -1.236720 -5.132563 -23.434003 -2.024427 8.914736 -25.530487 -2.650648 5.956713 2.353469 -0.921643 7.779774 -3.121352 -0.001260 3.927855 -4.765673 1.182169 15.249092 -1.538901 1.655160 20.247712 5.394786 0.744622 10.151545 1.889995 0.000000 0.000000 0.000000 -6.322694 6.520071 -29.830262 19.103421 -29.546491 5.081969 21.097892 27.911009 -29.766209 0.000000 0.000000 0.000000 -7.125000 0.000000 0.000000 -11.856931 61.098662 4.693144 0.000000 0.000000 0.000000 5.944564 13.011290 3.168911 -18.369988 -28.627436 -4.725651 4.796013 2.606796 -34.306546 0.000000 0.000000 0.000000 7.125000 0.000000 0.000000 20.318521 -2.598889 22.667984
24.401666 16.001644 1.720990 10.275233 -80.332617 -7.308201 0.000000 0.000000 0.000000 -20.786399 -6.349801 -12.145193 2.713288 10.215736 29.678289 1.742476 -8.344507 -23.652827 0.235534 3.123386 8.622372 0.000000 0.000000 0.000000 15.603218 0.295435 -8.794823 -1.318469 -7.272589 20.525482 -1.183396 -6.808658 -24.057662 -2.337407 9.536102 -27.487154 -2.841801 6.439780 1.741201 -0.981882 8.436503 -3.049953 0.072245 4.259600 -4.382926 1.519597 15.029374 -0.966286 1.388232 19.968675 4.710037 0.534625 10.011941 1.633659 0.000000 0.000000 0.000000 -6.765734 5.983501 -32.883616 20.550308 -31.299327 5.814746 21.949184 24.326377 -27.271055 0.000000 0.000000 0.000000 -7.125000 0.000000 0.000000 -9.456521 58.794727 3.206324 0.000000 0.000000 0.000000 7.215513 12.793797 -3.770177 -16.842497 -26.649430 -4.016580 4.703327 4.818255 -33.651439 0.000000 0.000000 0.000000 7.125000 0.000000 0.000000 20.280263 -1.985080 22.403840
24.379694 16.002595 1.675417 8.545335 -78.639462 -5.634553 0.000000 0.000000 0.000000 -20.481925 -6.527099 -12.284936 2.724270 10.234712 29.740122 1.624859 -9.570133 -22.868628 0.196058 2.851268 7.864864 0.000000 0.000000 0.000000 15.913053 -0.632544 -8.452941 -1.278851 -7.166647 20.210067 -1.186257 -7.518900 -24.567976 -2.267848 9.403050 -27.064452 -2.966795 6.782630 1.551272 -0.943124 8.903785 -2.860911 0.186551 4.495724 -4.118575 1.200621 15.297701 -1.275534 1.524355 20.325243 4.871966 0.652803 10.188307 1.690259 0.000000 0.000000 0.000000 -6.986019 5.590336 -33.826533 21.341204 -32.224477 6.230899 21.539714 23.424761 -27.918724 0.000000 0.000000 0.000000 -7.125000 0.000000 0.000000 -10.254565 59.355435 3.619274 0.000000 0.000000 0.000000 7.528648 12.836142 -5.699113 -16.454879 -26.133438 -3.844138 4.870534 6.202532 -33.498633 0.000000 0.000000 0.000000 7.125000 0.000000 0.000000 20.370227 -1.832886 22.463228
24.361184 16.007869 1.638314 7.745943 -77.155871 -4.675648 0.000000 0.000000 0.000000 -20.268538 -6.751531 -12.568278 2.714112 10.217149 29.682867 1.489251 -10.640634 -21.997128 0.172583 2.676058 7.378197 0.000000 0.000000 0.000000 16.127441 -1.111667 -8.272698 -1.239949 -7.060928 19.896081 -1.169811 -8.347715 -25.033936 -2.156721 9.185055 -26.375963 -3.080102 7.076768 1.321586 -0.850567 9.304282 -2.892555 0.341549 4.700722 -4.069924 0.896622 15.741732 -1.538468 1.491665 20.927216 5.300370 0.741106 10.482536 1.845402 0.000000 0.000000 0.000000 -7.006680 5.204047 -32.910898 20.603709 -31.362558 5.842452 21.237134 24.124499 -27.387586 0.000000 0.000000 0.000000 -7.125000 0.000000 0.000000 -10.296694 58.749450 3.484393 0.000000 0.000000 0.000000 7.640710 13.526411 -4.992069 -17.322924 -27.281199 -4.234479 4.580345 3.843569 -33.968692 0.000000 0.000000 0.000000 7.125000 0.000000 0.000000 20.211438 -2.290476 22.424256
24.350795 16.012030 1.599202 6.935046 -75.944353 -3.717297 0.000000 0.000000 0.000000 -20.021987 -7.309622 -12.738462 2.710807 10.211458 29.664286 1.425540 -11.169349 -21.604886 0.164492 2.612666 7.202190 0.000000 0.000000 0.000000 16.411093 -1.594609 -8.346619 -1.227376 -7.026314 19.793370 -1.139204 -9.019117 -25.300149 -2.190064 9.251146 -26.584171 -3.158519 7.328746 0.968929 -0.611294 9.664536 -2.734126 0.663302 4.885586 -3.775377 0.016916 16.524981 -2.166210 2.201627 21.967516 5.875497 1.147849 11.002134 1.955200 0.000000 0.000000 0.000000 -7.019855 4.445281 -30.213223 19.068148 -29.501897 5.065040 21.228519 26.978880 -28.762292 0.000000 0.000000 0.000000 -7.125000 0.000000 0.000000 -11.083448 60.130061 4.121707 0.000000 0.000000 0.000000 7.661302 13.720833 -3.814790 -18.877548 -29.265034 -4.971446 2.710862 -0.599015 -35.226243 0.000000 0.000000 0.000000 7.125000 0.000000 0.000000 19.235158 -3.586302 21.624683
24.337310 16.011304 1.559337 6.706389 -75.231072 -3.326268 0.000000 0.000000 0.000000 -19.854460 -7.779662 -12.895759 2.723782 10.233969 29.737699 1.388708 -11.323971 -21.361036 0.144224 2.447301 6.743556 0.000000 0.000000 0.000000 16.591234 -1.609309 -8.325206 -1.214423 -6.990663 19.687587 -1.090572 -9.615146 -25.388143 -2.127274 9.126348 -26.191264 -3.222969 7.682568 0.835313 -0.522290 10.142045 -2.794167 0.771046 5.127773 -3.811260 0.530339 16.912688 -1.686940 1.268643 22.517699 5.499763 0.780316 11.263455 1.917730 0.000000 0.000000 0.000000 -6.865903 3.955956 -25.432879 17.136247 -27.037036 4.149096 20.722722 30.485750 -28.835588 0.000000 0.000000 0.000000 -7.125000 0.000000 0.000000 -11.687490 60.082697 4.336202 0.000000 0.000000 0.000000 7.763311 14.070014 -2.263843 -20.568257 -31.320980 -5.823855 2.091993 -4.107848 -36.880616 0.000000 0.000000 0.000000 7.125000 0.000000 0.000000 18.933001 -5.195615 21.744233
